<svg xmlns="http://www.w3.org/2000/svg" width="847" height="366" fill="none" viewBox="0 0 847 366"><path fill="#fff" d="M209.797 38.04C209.692 17.04 226.682 0 247.68 0c20.913 0 37.867 16.972 37.867 37.885v177.918c0 18.623 14.412 23.005 8.398 43.453-7.877 26.783-50.84 26.892-67.918 7.303-12.415-14.241-15.663-30.916-15.662-52.216.002-53.079-.34-130.488-.568-176.304m245.978 126.872h-3.6v-8.4h4.5q.876 0 1.428.036.564.024.876.156a.8.8 0 0 1 .444.444q.132.312.156.864.036.552.036 1.44v1.32q0 .876-.036 1.44-.024.552-.156.864a.8.8 0 0 1-.444.444q-.312.132-.864.168a35 35 0 0 1-1.44.024h-.9zm0-4.8h.24v-.96q0-.18-.036-.204-.024-.036-.204-.036zm7.675 3.6h-.66a35 35 0 0 1-1.44-.024q-.552-.036-.864-.168a.8.8 0 0 1-.444-.444q-.132-.312-.168-.864a35 35 0 0 1-.024-1.44v-5.46h3.6zm4.744-7.2q.876 0 1.428.036.564.024.876.156a.8.8 0 0 1 .444.444q.132.312.156.864.036.552.036 1.44v1.32q0 .876-.036 1.44-.024.552-.156.864a.8.8 0 0 1-.444.444q-.312.132-.864.168a35 35 0 0 1-1.44.024h-1.56a35 35 0 0 1-1.44-.024q-.552-.036-.864-.168a.8.8 0 0 1-.444-.444q-.132-.312-.168-.864a35 35 0 0 1-.024-1.44v-1.32q0-.876.024-1.428.036-.564.168-.876a.8.8 0 0 1 .444-.444q.312-.132.864-.156.564-.036 1.44-.036zm-.9 2.4v.96q0 .18.024.216.036.024.216.024v-.96q0-.18-.036-.204-.024-.036-.204-.036m-11.519 23h-3.6v-8.4h4.5q.876 0 1.428.036.564.024.876.156a.8.8 0 0 1 .444.444q.132.312.156.864.036.552.036 1.44v1.32q0 .876-.036 1.44-.024.552-.156.864a.8.8 0 0 1-.444.444q-.312.132-.864.168a35 35 0 0 1-1.44.024h-.9zm0-4.8h.24v-.96q0-.18-.036-.204-.024-.036-.204-.036zm7.675-1.128q0 .876-.036 1.44-.024.552-.156.864a.8.8 0 0 1-.444.444q-.312.132-.864.168a35 35 0 0 1-1.44.024h-.66v-3.912q0-.816.024-1.32.024-.516.144-.792a.74.74 0 0 1 .396-.408q.288-.132.792-.156t1.308-.024h.936zm-2.016 3.18h2.016q0 .576-.036.9-.024.312-.168.456-.132.132-.468.168a13 13 0 0 1-.924.024h-2.004q0-.576.024-.888.036-.324.168-.456.144-.144.468-.168.336-.036.924-.036m31.105-16.129-.156.06-.216.084-.192.06q-.048.024-.072-.024v-.036l-.108.06q-.048.024-.072-.024-.036-.048.012-.072l.156-.084-.204.084-.204.048q-.036.012-.06-.024l-.096.048q-.048.024-.072-.024v-.012l-.168.06q-.048.024-.072-.024v-.036l-.168.048q-.048.024-.06-.024-.024-.06.036-.072h-.024l-.096.024-.012.012-.072.036-.192.084q-.048.024-.072-.024t.024-.072l.12-.06h-.048l-.072.036-.204.084q-.048.024-.072-.024v-.048l-.096.048q-.048.024-.072-.024a.05.05 0 0 1 0-.048l-.192.072q-.048.024-.072-.024-.012-.036 0-.06l-.18.048q-.048.024-.072-.036-.012-.048.06-.072h.012l.216-.072.204-.06q-.036-.036-.036-.048-.012 0-.024-.012l-.18.096-.216.084-.18.084q-.048.024-.072-.024t.024-.072l.192-.084v-.012l.204-.072.192-.096h.012a.6.6 0 0 1-.048-.12l-.18.048-.204.06-.204.084q-.048.024-.072-.024t.036-.072l.204-.096h.012l.192-.048.204-.06v-.084l-.18.072v.012l-.216.048-.18.072q-.048.012-.072-.036-.012-.048.036-.072l.18-.06h.012l.204-.06.228-.108v-.072a.2.2 0 0 0-.012-.072l-.18.072-.18.084h-.012l-.204.06q-.048.024-.072-.036-.012-.048.036-.06l.204-.072.192-.072.168-.072h.012l.06-.024v-.084l-.192.084-.192.084h-.012l-.168.06q-.048.012-.072-.036-.012-.048.036-.072l.168-.048.204-.084.18-.084.06-.036v-.12l-.204.096-.192.084-.012.012-.18.048q-.048.012-.072-.036-.012-.048.036-.06l.18-.06.444-.204q0-.084-.024-.108h-.012l-.18.048-.18.096-.216.084q-.048.024-.072-.024t.036-.072l.204-.084.18-.096h.012l.192-.06.06-.024q0-.084-.048-.12l-.192.06-.192.084h-.012l-.204.06q-.06.012-.072-.036-.012-.06.036-.072l.204-.048.192-.096h.012l.204-.06.06-.012v-.096l-.216.084-.204.084-.216.072q-.048.024-.072-.024-.012-.048.036-.072l.204-.084.216-.072.252-.108a.1.1 0 0 1-.012-.048v-.048q0-.036-.024-.048l-.204.072-.204.048-.204.084q-.048.012-.072-.036-.012-.048.036-.072l.204-.072h.012l.192-.06.216-.072.036-.012v-.072l-.156.048-.192.084-.18.06q-.048.024-.072-.024-.012-.06.036-.072l.168-.072.204-.072v-.012l.192-.06a1 1 0 0 0-.012-.144l-.168.06-.18.072h-.012l-.204.06q-.06.012-.072-.036-.012-.06.036-.072l.216-.06.18-.06.204-.084v-.132l-.192.072-.18.084-.18.096q-.048.024-.072-.024t.024-.072l.18-.096.18-.084.012-.012.204-.06.036-.012v-.12l-.168.06-.168.084h-.012l-.168.06q-.048.012-.072-.036-.012-.06.036-.072l.168-.06.168-.072h.012l.168-.072h.012l.024-.012a.5.5 0 0 0 .012-.096l-.204.06-.168.048-.18.096q-.048.024-.072-.024t.024-.072l.18-.096h.012l.168-.06.24-.072a.3.3 0 0 0-.024-.144l-.204.096-.216.06-.204.072q-.048.024-.072-.024-.012-.048.036-.072l.204-.084h.012l.204-.048.204-.096h.012l.048-.012v-.096l-.18.06-.168.084-.192.096q-.048.024-.072-.024t.024-.072l.192-.096.168-.084h.012q-.012 0 0 0l.216-.072a.4.4 0 0 0-.012-.12h-.012l-.192.06-.192.084-.192.096q-.048.024-.072-.024t.024-.072l.192-.096.192-.084.012-.012.24-.072a1 1 0 0 0-.012-.144l-.18.06-.18.084h-.012l-.204.06q-.06.012-.072-.048-.012-.048.036-.06l.216-.06.18-.072.216-.072v-.108l-.156.072-.18.06-.216.096q-.048.024-.072-.024t.036-.072l.204-.096.192-.072.18-.072h.012v-.12l-.132.072-.168.084-.18.06q-.048.024-.072-.024-.012-.048.036-.072l.168-.072.168-.072.18-.096h.012v-.132l-.144.06v.012l-.204.048-.18.06q-.048.012-.072-.036-.012-.048.036-.072l.192-.048.192-.06.168-.072q.012-.012.024-.012v-.048a.2.2 0 0 0 .012-.06l-.204.072-.216.072-.204.072q-.048.024-.072-.024-.012-.06.036-.072l.216-.084.204-.06.252-.096v-.12l-.192.06-.18.096-.216.096q-.048.012-.072-.036t.036-.072l.204-.084.18-.096h.012l.24-.084q0-.084-.048-.108l-.216.084-.18.072-.204.096q-.048.024-.072-.024t.024-.072l.204-.096.192-.084.204-.072.108-.036q0-.084-.048-.096l-.192.06-.192.084-.204.084q-.048.024-.072-.024t.024-.072l.204-.084.204-.084.192-.072.084-.024q-.012-.096-.048-.12l-.216.096-.204.048-.18.084q-.048.024-.072-.024-.024-.06.036-.072l.18-.084h.012l.192-.06.204-.084h.012l.072-.036q0-.072-.024-.096l-.216.084-.192.096h-.012l-.168.048q-.048.024-.072-.024-.012-.06.036-.072l.168-.06.192-.084h.012l.204-.084.06-.024q0-.096-.036-.132l-.18.084-.192.096-.18.084q-.048.024-.072-.024-.024-.06.024-.072l.18-.084.192-.096.18-.084.012-.012.072-.012q0-.084-.048-.12l-.204.06-.192.06-.18.048q-.048.024-.072-.036-.012-.048.036-.06l.192-.06.18-.06.216-.048.06-.024a.2.2 0 0 0-.024-.108l-.192.072-.204.072-.192.06q-.06.012-.072-.036-.012-.06.036-.072l.204-.048.192-.072.192-.084h.012l.048-.012v-.12l-.192.072-.18.048-.18.084q-.048.024-.072-.024t.024-.072l.18-.084h.012l.18-.06.228-.072a1 1 0 0 1-.012-.12l-.18.072-.168.06-.192.084q-.048.024-.072-.024t.024-.072l.192-.084.012-.012.168-.048.168-.084a.2.2 0 0 0 .048-.012v-.084l-.204.084-.18.072-.216.096q-.048.024-.072-.024-.024-.06.036-.072l.204-.096.192-.084.24-.084v-.012a.13.13 0 0 1-.012-.06v-.072l-.18.084-.18.06-.192.084q-.048.024-.072-.024t.024-.072l.192-.084v-.012h.012l.18-.048.216-.096q0-.048.012-.096l-.096.036-.204.06-.192.06q-.048.024-.072-.036-.012-.048.036-.06l.18-.06q0-.036.036-.048l.204-.072.168-.048a.24.24 0 0 1 .072-.084.37.37 0 0 1 .24-.132 1.6 1.6 0 0 1 .276 0h.06q.06 0 .108.012h.12a14 14 0 0 0 1.68-.048q.252-.024.504-.012.264 0 .516.012.084 0 .168.012h1.02q.228 0 .444.036.324.06.648.168.336.096.624.252.168.096.324.216.168.108.3.252.204.204.36.624.168.408.252.852.096.432.072.72a4.5 4.5 0 0 1-.084.66q-.06.372-.204.732-.132.348-.336.552-.228.288-.564.528-.324.24-.66.396h-.012q-.3.108-.624.144a5 5 0 0 1-.612.036l-.132.036q-.048.024-.06-.024-.012-.012-.012-.024l-.18.06q-.048.012-.072-.036l-.168.06q-.048.024-.072-.024v-.024l-.18.048a.05.05 0 0 1-.048 0l-.18.084q-.048.024-.072-.024t.024-.072l.204-.096.096-.024a.13.13 0 0 0-.06-.012l-.084.012-.18.072-.06.024a.3.3 0 0 0-.012.084q0 .048-.012.084-.036.348-.048.684 0 .336-.036.672v.168q0 .084-.012.168a.6.6 0 0 1-.024.156 1 1 0 0 1-.06.18.5.5 0 0 1-.312.276.8.8 0 0 1-.24.036m-2.064-.192q.036-.024.06 0h.072a1 1 0 0 0 .108-.012q.024 0 .048.012.084 0 .18-.012h.012q.132-.012.264-.012l.264-.024q.18-.024.348-.036l.348-.024q.036 0 .072.012h.084q.12.012.24.012a.34.34 0 0 0 .216-.096.2.2 0 0 0 .048-.084 1 1 0 0 0 .036-.108 1 1 0 0 0 .012-.144 1 1 0 0 0 .012-.144v-.156q.036-.336.048-.672.012-.348.048-.684v-.072q0-.036.012-.072l-.024-.024q0-.024.012-.048v-.012a.05.05 0 0 1 0-.048q-.024 0-.036-.036-.012-.048.036-.06 0-.096.06-.156l.036-.012a.1.1 0 0 1 .036-.012h.216q.12 0 .228.012.084 0 .168.012.096.012.18.012.156.024.3.036.156.012.312.012h.048l.06-.024q.036-.012.06.012h.108l.06-.036q.048-.024.072.024h.012l.168-.072q.036-.012.06.012l.192-.06q.012-.012.036-.012a1 1 0 0 0 .096-.012l.096-.036q.012-.012.024-.012l.216-.072q.036-.024.048.012.252-.144.492-.324.24-.192.408-.408h.012q.18-.18.288-.504.12-.324.18-.672t.072-.588a2.7 2.7 0 0 0-.072-.648 4 4 0 0 0-.216-.78q-.144-.384-.324-.564a1.7 1.7 0 0 0-.264-.216 2 2 0 0 0-.288-.192 3 3 0 0 0-.576-.24 4 4 0 0 0-.588-.144 2.6 2.6 0 0 0-.432-.036h-.996a10 10 0 0 0-.672-.024 3.5 3.5 0 0 0-.504.012q-.408.036-.852.048-.432.012-.852 0h-.108a.6.6 0 0 0-.12-.012h-.072a1 1 0 0 0-.156-.012.16.16 0 0 0-.132.06.2.2 0 0 0-.072.132q0 .084.012.168 0 .048.012.072v.228q.012.36.012.72l.024.696a6 6 0 0 1 0 .744q-.012.24-.036.48a4 4 0 0 0-.024.456v.24q.012.12.012.24.012.096.012.204v.456q0 .12-.012.24 0 .108-.012.216v.528l.024.324v.156a8 8 0 0 1 .012 1.164 2 2 0 0 0-.012.24q0 .024-.012.072v.144q.012.036.024.084l.048.072.204.084zm2.688-4.716-.084.036a.08.08 0 0 1-.084-.024q-.048-.036-.048-.072l.024-.456q.012-.228.012-.444v-.108q-.048.012-.06-.036t.06-.072v-.024q-.06.012-.06-.036-.012-.06.036-.072a.4.4 0 0 1-.012-.084.3.3 0 0 1 .048-.096q.012 0 .036-.012a.1.1 0 0 1 .036-.012q.096-.012.192-.012h.3q.228-.012.432.024.216.024.348.228.18.252.144.624a.69.69 0 0 1-.312.54.5.5 0 0 1-.168.072 2 2 0 0 1-.18.036.4.4 0 0 1-.084.012.3.3 0 0 0-.084-.012zm.288-1.224-.18.072v.024q0-.012.012-.012l.204-.084.072-.024a.1.1 0 0 0-.036.012.3.3 0 0 0-.072.012m-.18.18v.084q0 .168-.012.336 0 .168-.012.336h.396a.4.4 0 0 0 .132 0h.048a.13.13 0 0 1 .06-.012l.072-.036v-.012l.096-.024a.43.43 0 0 0 .132-.228l-.156.072-.204.072-.18.048q-.048.024-.072-.036-.012-.048.036-.06l.192-.06.192-.06.18-.096q.012 0 .024-.012a.2.2 0 0 0-.012-.12l-.204.084h-.012l-.204.072-.168.072q-.048.024-.072-.024t.024-.072l.18-.072v-.012l.204-.06.216-.096.024-.012a.2.2 0 0 0-.072-.108l-.192.06-.18.06-.216.072q-.048.012-.06-.036-.024-.048.024-.072l.216-.06.18-.072h.012l.156-.048a.3.3 0 0 0-.144-.06l-.168.048-.204.072-.204.084a.1.1 0 0 1-.048-.012m5.173 5.844-.024-.012a.4.4 0 0 0-.06.012h-.012v.012l-.204.048-.216.096-.192.06q-.06.024-.072-.024-.012-.06.036-.072l.192-.072.204-.084h.012v-.012l.24-.06a.3.3 0 0 0-.048-.072.3.3 0 0 0-.072-.072l-.18.072-.204.06-.204.048q-.06.024-.072-.036-.012-.048.036-.06l.216-.06.192-.048.168-.072a.4.4 0 0 0 .06-.012.5.5 0 0 1-.012-.108l-.168.084-.18.084h-.012l-.18.06q-.048.012-.072-.036-.012-.048.036-.072l.18-.048.18-.084.18-.084q0-.012.036-.024v-.108h-.012l-.192.072-.168.072-.18.084q-.048.024-.072-.024t.024-.072l.18-.096.18-.06v-.012l.24-.084v-.108h-.012l-.204.048-.204.06-.18.084q-.048.012-.072-.036t.024-.072l.18-.072.012-.012.204-.048.252-.072v-.12h-.012l-.192.06-.18.072-.216.084q-.048.024-.072-.036-.012-.048.036-.06l.204-.084.192-.084.24-.072v-.132l-.18.072-.204.084-.192.084q-.048.024-.072-.024t.024-.072l.192-.084v-.012l.216-.072.18-.084q.012 0 .036-.012v-.096h-.012l-.204.06-.192.048-.204.084q-.048.024-.072-.036-.012-.048.036-.06l.204-.084h.012l.18-.06.252-.072v-.108l-.144.06-.204.096-.192.06q-.048.024-.072-.024-.012-.06.036-.072l.18-.072.216-.084.18-.072v-.132l-.168.06-.192.096-.192.072q-.048.012-.072-.036-.012-.048.036-.072l.18-.06.192-.096h.012l.204-.072a1 1 0 0 1-.012-.108l-.156.06-.192.06-.192.06q-.048.024-.072-.036-.012-.048.036-.06l.204-.072.18-.06.192-.072v-.156l-.18.048-.204.096-.216.084q-.048.012-.072-.036-.012-.048.036-.072l.204-.072.216-.096.216-.072v-.108l-.144.06-.204.06-.204.096q-.048.024-.072-.024t.024-.072l.204-.096h.012l.204-.072.18-.06v-.132l-.192.048-.192.06-.204.084q-.048.024-.072-.024t.024-.072l.204-.084v-.012h.012l.192-.048.228-.072q0-.048.012-.096l-.18.072-.18.084-.216.084q-.048.012-.072-.036-.012-.048.036-.072l.204-.072.18-.096h.012l.216-.084q0-.06.012-.132l-.168.06-.18.084h-.012l-.204.06q-.048.024-.072-.036-.012-.048.036-.06l.204-.072.192-.072.204-.084v-.06q0-.036-.012-.048l-.192.072-.18.072-.216.084q-.048.012-.072-.036-.012-.048.036-.072l.204-.072.192-.072.18-.084.072-.024q0-.096-.036-.132l-.204.096-.192.072-.18.06q-.048.024-.072-.024-.012-.06.036-.072l.18-.072.192-.072.204-.084h.012l.072-.024q0-.072-.036-.096l-.204.072-.18.072-.204.096q-.048.012-.072-.036t.024-.072l.204-.084.192-.072.192-.084h.012l.084-.024a.3.3 0 0 0-.012-.096h-.012l-.18.06-.18.072h-.012l-.204.06q-.06.012-.072-.036t.036-.072l.216-.048.18-.084.24-.072a.4.4 0 0 0-.012-.12v.012h-.012l-.192.048-.168.072-.216.084q-.048.024-.072-.024t.036-.072l.204-.096.18-.06.252-.084q0-.084-.024-.12l-.192.072-.192.048-.204.096q-.048.024-.072-.024t.024-.072l.204-.096h.012l.192-.06.24-.084q0-.096-.048-.132l-.18.084-.192.072-.168.048q-.048.024-.072-.036-.012-.048.036-.06l.18-.06.18-.06.18-.084h.012l.06-.024v-.084l-.192.06v.012l-.204.048-.204.06q-.06.012-.072-.036-.012-.06.036-.072l.216-.06.192-.048.204-.084a.4.4 0 0 0-.012-.096l-.168.084-.192.072-.18.06q-.048.024-.072-.024-.012-.06.036-.072l.18-.072.192-.072.192-.084v-.024a.6.6 0 0 1-.012-.12l-.156.048-.168.096-.192.084q-.048.024-.072-.024t.024-.072l.192-.084.168-.096H498l.18-.06v-.144l-.156.048-.216.06-.204.06q-.06.012-.072-.036t.036-.072l.216-.048.204-.072.18-.048v-.084l-.12.036-.204.084-.192.06q-.048.024-.072-.024-.012-.048.036-.072l.18-.072.216-.072.144-.048v-.108l-.096.036-.18.084-.18.072q-.048.012-.072-.036-.012-.048.036-.072l.168-.06.192-.084.12-.06v-.156l-.108.036-.168.096-.204.084q-.048.024-.072-.024t.024-.072l.204-.096.168-.084H498v-.012l.144-.036v-.096l-.12.024-.18.072-.204.084q-.048.012-.072-.036-.012-.048.036-.072l.192-.072.192-.072.144-.036v-.144l-.072.036-.18.06-.192.084q-.048.024-.072-.024t.036-.072l.18-.084.192-.072.12-.036v-.12l-.096.048-.204.096-.192.084q-.048.024-.072-.024t.024-.072l.192-.084.204-.096.144-.072v-.132l-.084.036-.18.048-.192.06q-.06.012-.072-.036t.036-.072l.204-.048.168-.06.132-.048a.2.2 0 0 0-.012-.048v-.048l-.06.024-.168.06-.18.072q-.048.024-.072-.024t.024-.072l.18-.084h.012l.168-.048.108-.036q0-.024.012-.036.012-.048-.024-.06l-.168.072-.192.06q-.048.024-.072-.036-.012-.048.036-.06l.144-.06q0-.024.036-.036l.216-.072.096-.024a.52.52 0 0 1 .372-.276q.168-.024.336-.024.432-.036.864-.048.432-.024.852-.012.072 0 .132.012h.12q.168 0 .324.024a.46.46 0 0 1 .3.144.46.46 0 0 1 .144.3q.024.156.036.312.012.36.012.72a39 39 0 0 1-.096 1.92 14 14 0 0 0-.024.828l.024.816q.012.24.012.48.012.228.012.468v.036h.048q.168 0 .336-.012l.348-.024q.456-.06.948-.06t.948.012h.312q.144.012.288.036a.42.42 0 0 1 .264.132q.108.12.12.264.024.132.024.288v.048q.012.288.012.576t.012.576v.084a.3.3 0 0 1 .012.084 1.2 1.2 0 0 1 0 .324.535.535 0 0 1-.468.468 1.2 1.2 0 0 1-.336 0h-.12l-.192.06-.18.06q-.048.024-.072-.024v-.024l-.144.048q-.048.024-.072-.024l-.168.048q-.048.024-.072-.024-.012-.06.036-.072l.192-.06h-.108l-.072.024-.18.06q-.012.012-.024.012a.1.1 0 0 0-.036.012l-.18.072q-.06.024-.072-.024-.024-.048.024-.072l.192-.084h-.048l-.156.072-.204.06q-.048.024-.072-.024v-.012l-.168.048q-.06.024-.072-.024v-.024l-.108.048q-.06.024-.072-.024-.024-.036.012-.06l-.192.072q-.048.024-.072-.024t.036-.072l.072-.036h-.024l-.096.036-.204.072q-.06.024-.072-.024v-.012l-.144.06q-.048.024-.072-.024v-.048l-.18.048q-.048.012-.06-.012l-.132.06q-.048.024-.072-.024-.024-.036 0-.06l-.168.048q-.048.024-.072-.036 0-.024-.024-.024l-.18.072q-.048.024-.072-.024l-.108.024q-.048.024-.072-.036-.012-.036.024-.06l-.18.048q-.012.012-.06.012l-.204.072q-.06.024-.072-.024-.024-.048.024-.072l.024-.012-.18.048q-.048.024-.072-.036v-.024l-.192.06q-.036.012-.06-.012l-.156.06q-.048.024-.06-.024-.024-.048.024-.072l.144-.06h-.024l-.132.072-.204.072q-.048.024-.072-.024v-.012l-.12.036q-.048.024-.06-.024-.012-.012 0-.024l-.204.084q-.048.024-.072-.024-.012-.036.012-.06l-.18.06q-.06.024-.072-.024-.012-.06.036-.072l.192-.072.108-.036-.108.024-.18.06-.228.084-.216.084q-.048.024-.072-.024-.012-.048.024-.072 0-.036.024-.048l.18-.084.216-.084zm2.364-.096q.024 0 .048.012h.084a1 1 0 0 0 .108-.012q.024 0 .048.012.084 0 .18-.012h.36q.168-.012.336-.012.18-.012.36-.012h1.44q.3 0 .6.012h.144l.156.024a1 1 0 0 0 .144-.012q.132-.024.168-.06.048-.048.06-.18a.3.3 0 0 0 .012-.144 1 1 0 0 0-.012-.144.2.2 0 0 0-.012-.072v-.072a14 14 0 0 1-.012-.576v-.576q-.012-.024 0-.084 0-.084-.012-.168a.26.26 0 0 0-.072-.156.26.26 0 0 0-.156-.072 1 1 0 0 0-.168-.012h-.324a36 36 0 0 0-.936-.012q-.48 0-.924.06h-.012l-.348.024a5 5 0 0 1-.36.012l-.084.012-.12.024q-.048 0-.096-.06-.06-.048-.06-.096t.012-.108a.5.5 0 0 0 .012-.096q0-.228-.012-.456 0-.24-.012-.48l-.024-.84q0-.42.024-.84a35 35 0 0 0 .096-1.896q0-.348-.012-.708a.3.3 0 0 0-.012-.072q0-.084-.012-.18a.3.3 0 0 0-.072-.168.3.3 0 0 0-.168-.072 2 2 0 0 0-.18-.012h-.204a.6.6 0 0 0-.12-.012q-.42-.012-.852.012-.432.012-.852.048h-.072q-.096 0-.192.012a.28.28 0 0 0-.168.084.3.3 0 0 0-.06.108q0 .024-.012.036a.5.5 0 0 0-.024.156q.024.012.036.036.012.048-.036.06v.132q.024.012.036.036.012.06-.036.072v.132q.024 0 .036.036.012.048-.036.072a.6.6 0 0 0-.012.12q.036.012.036.036.024.048-.036.072a1 1 0 0 1 .012.132q.024.012.036.036.012.048-.036.072v.132q.024 0 .024.024.024.048-.024.072 0 .072.012.144.012 0 .024.024.012.036-.024.06a1 1 0 0 0 .012.156q.012.012.012.024.012.024-.012.048.012.216.036.432.072.48.06 1.008 0 .516-.024 1.032l-.024.768q-.012.372.012.732v1.68q0 .096.012.132 0 .048.024.096a1 1 0 0 1 .048.084l.288.132h.192q.096 0 .192-.012h.348q.168-.012.336 0 .12 0 .228.012h.24q.096 0 .192.012zm8.797.444-.204.06a.05.05 0 0 1-.048 0 .1.1 0 0 0-.036-.024h-.012l-.192.06q-.036.012-.06-.012l-.108.048q-.048.024-.072-.024v-.012q-.024 0-.036-.036-.012-.048.036-.06l.24-.084h-.144l-.168.084h-.012l-.204.084q-.048.012-.072-.036t.036-.072l.156-.048-.168.036-.18.072q-.048.012-.072-.036l-.216.084q-.048.024-.072-.024-.012-.048.036-.072l.204-.084.12-.06a.2.2 0 0 1-.06-.012h-.084l-.204.072-.168.072q-.06.012-.072-.036-.024-.048.024-.072l.18-.06.072-.036h-.012l-.084.036-.204.072-.192.072q-.048.012-.072-.036-.012-.036.024-.06l-.144.048q-.048.012-.072-.036-.012-.048.036-.072l.192-.06.18-.096h.012q-.012-.012-.024-.012l-.18.084-.192.06-.18.084q-.048.024-.072-.024t.024-.072l.18-.084h.012l.192-.072.096-.036a.3.3 0 0 0-.072-.036.15.15 0 0 0-.06-.036l-.204.084h-.012l-.204.048-.204.096q-.048.024-.072-.024-.024-.06.024-.072l.216-.096.216-.06.132-.048a.2.2 0 0 0-.096 0l-.18.06-.192.084-.168.084q-.048.012-.072-.036t.024-.072l.168-.072h.012l.192-.084.156-.06a1 1 0 0 1-.084-.048l-.096.036-.192.084-.192.048-.204.096q-.048.024-.072-.024t.024-.072l.216-.096h.012l.18-.06.216-.084a.6.6 0 0 1-.108-.084l-.072.024-.18.06-.192.06-.18.072q-.048.024-.072-.024-.012-.06.036-.072l.18-.072.192-.072.18-.048-.096-.072-.096.024-.204.084-.168.06-.216.072q-.048.012-.06-.036-.024-.048.036-.072l.204-.06.168-.072.204-.072v-.012h.036a1 1 0 0 1-.084-.072l-.072.012-.168.084-.18.072-.168.048q-.06.024-.072-.036-.012-.048.036-.06l.168-.06.168-.06.18-.084h.012a.1.1 0 0 0-.036-.036l-.048-.048-.072.024-.192.084-.192.06-.192.048q-.048.024-.072-.036-.012-.048.048-.06l.192-.06.18-.048.228-.108-.072-.096-.072.036h-.012l-.204.072-.204.096-.204.072q-.048.024-.072-.024-.012-.06.036-.072l.192-.084.216-.084v-.012l.264-.096-.072-.12-.12.048-.192.06-.192.048-.168.084q-.048.024-.072-.024t.024-.072l.168-.084h.012l.204-.06.18-.048.108-.06-.048-.12-.12.06-.192.06-.18.096-.192.084q-.048.012-.06-.036-.024-.048.024-.072l.18-.072.192-.096.18-.06.12-.06-.048-.144-.156.072-.204.084-.168.096h-.012l-.18.06q-.06.012-.072-.036t.036-.072l.18-.048.168-.096.216-.084.156-.072-.048-.144-.12.036-.18.096-.192.06-.204.084q-.048.024-.072-.024t.024-.072l.216-.096h.012l.18-.048.18-.096.132-.048a1 1 0 0 1-.048-.132l-.12.036-.192.072-.18.084-.168.096q-.048.024-.072-.024t.024-.072l.168-.096.18-.084v-.012l.204-.06.132-.048-.036-.12-.096.036-.192.084h-.012v.012l-.204.048-.192.072q-.048.012-.072-.036-.012-.048.036-.072l.192-.06.204-.06.192-.084v-.012h.012l.096-.036-.024-.132-.108.048-.204.084-.192.06v.012l-.204.048q-.048.012-.06-.036t.036-.06l.192-.06.18-.072.216-.072.12-.06q-.012-.084-.06-.108l-.012.012-.18.048-.192.084h-.012l-.192.048q-.06.024-.072-.036-.012-.048.036-.06l.204-.06.192-.072.18-.06.084-.036a1 1 0 0 1-.012-.18l-.072.012-.168.096-.18.084-.216.06q-.048.024-.06-.036-.024-.048.024-.06l.216-.072.168-.072.168-.096h.012l.096-.024q0-.096-.048-.12l-.192.048-.192.072-.192.06q-.048.024-.072-.024-.012-.06.036-.072l.192-.072.192-.06.192-.06.084-.024a.3.3 0 0 0-.012-.084q0-.036-.036-.06l-.204.048-.204.084-.216.072q-.048.012-.06-.036-.024-.06.036-.072l.204-.06.192-.084h.012l.204-.06.072-.024a.2.2 0 0 0-.012-.072.12.12 0 0 0-.048-.06l-.216.06-.18.072-.18.06q-.048.012-.06-.036-.024-.048.036-.072l.168-.048.18-.084h.012l.204-.06.072-.012a1 1 0 0 0-.024-.12l-.18.084-.204.06-.18.084q-.048.024-.072-.036-.024-.048.024-.06l.192-.084.192-.072.228-.096a.5.5 0 0 0-.012-.12l-.144.06-.192.06-.168.06q-.06.012-.072-.036t.036-.06l.168-.06.192-.072.168-.06a1 1 0 0 0-.012-.144l-.12.06-.168.072-.168.072q-.06.024-.072-.024-.024-.048.024-.072l.18-.084.168-.06.156-.072a1 1 0 0 1-.012-.132l-.096.048-.204.096h-.012l-.192.048q-.06.024-.072-.036-.012-.048.036-.06l.192-.06.204-.084.144-.072v-.168l-.06.024-.216.072-.18.084q-.048.024-.072-.024t.024-.072l.192-.084v-.012l.216-.06.108-.048v-.012q0-.048.012-.108l-.108.036-.216.096-.204.096q-.048.012-.072-.036t.024-.072l.216-.084.204-.096.168-.072.024-.144-.108.036-.18.072-.192.096q-.048.024-.072-.024t.024-.072l.204-.096.168-.084h.012l.168-.048q.024-.06 0-.084l-.18.096-.216.096q-.048.012-.072-.036-.012-.048.036-.072l.204-.084.18-.096h.012l.096-.036q.024-.06 0-.072l-.18.048-.18.084q-.048.024-.072-.036-.024-.048.036-.06l.18-.084h.012l.168-.06.12-.048q0-.024.012-.048l-.18.072-.18.06q-.048.012-.072-.036-.012-.06.036-.072l.18-.06.192-.072.084-.036a.3.3 0 0 0 .036-.072l-.144.036-.18.06q-.06.012-.072-.036t.036-.072l.192-.048.18-.06.072-.024.036-.06-.132.048-.168.048q-.06.024-.072-.036-.012-.048.036-.06l.168-.06.156-.048-.18.06q-.048.012-.072-.036-.012-.06.036-.072l.144-.048h-.012q-.024-.048.024-.072l.18-.084.18-.084.12-.048.048-.048-.168.084-.18.072q-.048.024-.072-.024t.024-.072l.24-.096q.012-.024.024-.024l.18-.072.156-.06q.024-.024.024-.036l-.192.096q-.048.024-.072-.024t.024-.072l.168-.084q0-.048.048-.06l.204-.048.156-.096h.024q.072-.06.144-.108h.012v-.012a3 3 0 0 1 .444-.204q.24-.096.48-.168.36-.168.876-.216t.912-.024h.3q.348.012.708.036.372.024.672.168l.024.024.024.012q.552.552 1.092 1.164.552.612 1.032 1.224l.012.024.012.012q.144.324.156.744.024.42.024.828a3 3 0 0 0 0 .504q0 .24-.012.612a7 7 0 0 1-.072.78q-.048.408-.156.744a1.2 1.2 0 0 1-.276.516 5.6 5.6 0 0 1-.876.708q-.48.324-.936.612h-.012v.012a2 2 0 0 1-.504.168q-.276.06-.6.096l-.204.072q-.048.012-.06-.036a.05.05 0 0 1 0-.048.2.2 0 0 1-.072.012l-.12.024a.05.05 0 0 1-.048 0 .2.2 0 0 1-.048-.012v.012zm-1.26-.456q.012 0 .012.012.24.036.48.06.252.012.48.036h.336q.372-.012.852-.036.492-.036.816-.204.444-.288.912-.6a5.2 5.2 0 0 0 .852-.684q.144-.144.228-.456.096-.324.132-.696.048-.384.06-.732t.012-.552a2 2 0 0 1-.012-.24q.012-.132.012-.264 0-.384-.012-.768a1.8 1.8 0 0 0-.144-.684q-.468-.6-1.008-1.2-.528-.6-1.068-1.14a1.7 1.7 0 0 0-.6-.144 9 9 0 0 0-.636-.024h-.312a5.3 5.3 0 0 0-.852.024q-.492.036-.816.192h-.012q-.228.072-.444.156a3 3 0 0 0-.42.204 5 5 0 0 0-1.068 1.02 2 2 0 0 0-.192.324.08.08 0 0 1-.024.06 1 1 0 0 0-.06.156v.012q.012.036-.024.06l-.048.156v.012q.024.036-.012.06a1 1 0 0 0-.036.156v.012q.024.048-.012.06a.6.6 0 0 0-.024.168v.012q.024.036-.012.06v.036a2 2 0 0 0-.012.18v.012q.024.024 0 .048 0 .204.012.396.024.192.036.384.012.06.012.108a.4.4 0 0 1 .012.096q.012.144.012.288l.024.288q0 .24.012.48.024.24.084.468.12.384.252.84.144.456.432.744.288.276.648.516.372.24.732.42.084.024.168.06h.012q.108.036.228.048m1.608-2.04h-.072l-.204-.084-.096.048q-.048.024-.072-.024-.012-.048.024-.072a2 2 0 0 1-.372-.06.7.7 0 0 1-.3-.216.76.76 0 0 1-.192-.432 5 5 0 0 1 0-.48.1.1 0 0 0 .012-.036q.024-.348.024-.708t.012-.744v-.66a.5.5 0 0 0-.012-.096.4.4 0 0 1-.012-.096q0-.06.036-.108a.3.3 0 0 1 .108-.12.1.1 0 0 1 .036-.036l.096-.036.096-.048q0-.012.012-.012l.096-.024.096-.024q.036-.012.06.012a1 1 0 0 1 .144-.012l.072-.036q.036-.024.072.024.06 0 .144-.012l.072-.024q.048-.024.072.024h.06a.13.13 0 0 1 .06-.012 1 1 0 0 1 .108-.024q.048-.012.072.036v.012q.072.036.108.108a.7.7 0 0 1 .084.132q.096.168.132.36t.06.384q.024.228.024.468t-.012.48q0 .012.012.012.012.048-.024.072v.12q.012 0 .012.024.012.036-.024.06v.12q.012 0 .012.024.024.036-.024.06v.108a.1.1 0 0 1 .024.036q.024.048-.024.06v.12q.012 0 .012.024.024.036-.012.06v.144q.024.036 0 .06a2 2 0 0 0-.012.192q0 .024-.012.036a1.05 1.05 0 0 1-.168.516.73.73 0 0 1-.3.252.4.4 0 0 0-.12.048m-.264-.384.156-.048.192-.048.144-.072a.3.3 0 0 0 .036-.084.2.2 0 0 0 .012-.072l-.132.048-.18.072-.168.072q-.048.012-.072-.036-.012-.048.036-.072l.168-.06.168-.084h.012l.192-.048a.4.4 0 0 0 .012-.096l-.084.036-.168.084-.192.072q-.048.024-.072-.024t.036-.072l.18-.084.168-.072h.012l.132-.048v-.12l-.108.048-.216.084-.204.06q-.06.024-.072-.036-.024-.048.036-.06l.204-.072.204-.072.156-.072v-.048l-.108.048-.18.084-.216.072q-.048.024-.072-.024-.012-.06.036-.072l.204-.084.192-.072.144-.072v-.096l-.108.048-.204.06-.192.096q-.048.024-.072-.024t.024-.072l.204-.096.204-.072.144-.06q0-.06.012-.132l-.132.048-.18.072-.168.096q-.048.024-.072-.024t.024-.072l.168-.096h.012l.18-.084h.012l.156-.048q.012-.012.012-.024v-.024l-.12.048v.012l-.168.06-.192.096q-.048.024-.072-.024t.024-.072l.192-.096.18-.072.156-.072a2 2 0 0 0 .012-.192l-.108.036-.168.048-.216.096q-.048.024-.072-.036-.012-.048.036-.06l.204-.096h.012l.168-.06.156-.048v-.132l-.168.06-.168.048-.18.096q-.06.024-.084-.024t.036-.072l.18-.096h.012l.168-.06.204-.06v-.168l-.144.048-.216.048-.18.096q-.048.024-.072-.024t.024-.072l.192-.096.012-.012.204-.048.168-.06a.6.6 0 0 0-.012-.12l-.168.048-.168.096-.192.096q-.048.024-.072-.024-.024-.06.024-.084l.192-.084.168-.096h.012l.192-.06a1 1 0 0 0-.012-.156l-.156.06v.012l-.192.06-.216.084q-.048.012-.072-.036-.012-.048.036-.072l.216-.072.192-.072.168-.072v-.012a.3.3 0 0 0-.036-.108l-.18.06-.18.084-.18.084q-.048.024-.072-.024t.024-.072l.18-.096.192-.072v-.012l.192-.06a1 1 0 0 0-.048-.084q0-.012-.024-.048l-.144.072h-.012l-.204.096-.204.096q-.048.024-.072-.036-.012-.048.036-.06l.192-.096.216-.096.096-.048-.084.012h-.072q-.096 0-.192.012-.096 0-.204.012-.024.012-.036 0l-.096.024a.2.2 0 0 0-.072.024 3 3 0 0 1-.168.048q-.12.036-.132.06 0 .012.012.072.024.06.024.084v.708q-.012.348-.012.708t-.024.708a.2.2 0 0 0-.012.084 3 3 0 0 0 0 .36q.012.18.12.312.096.108.228.144.144.024.288.036h.024q.024.012.072.024m.228.084.06-.024a.1.1 0 0 0 .036-.024l.048-.024zm-2.04 2.508h-.012l-.12.036-.168.084.132-.048zm-15.338 14.048-.156.06-.216.084-.192.06q-.048.024-.072-.024v-.036l-.108.06q-.048.024-.072-.024-.036-.048.012-.072l.156-.084-.204.084-.204.048q-.036.012-.06-.024l-.096.048q-.048.024-.072-.024v-.012l-.168.06q-.048.024-.072-.024v-.036l-.168.048q-.048.024-.06-.024-.024-.06.036-.072h-.024l-.096.024-.012.012-.072.036-.192.084q-.048.024-.072-.024t.024-.072l.12-.06h-.048l-.072.036-.204.084q-.048.024-.072-.024v-.048l-.096.048q-.048.024-.072-.024a.05.05 0 0 1 0-.048l-.192.072q-.048.024-.072-.024-.012-.036 0-.06l-.18.048q-.048.024-.072-.036-.012-.048.06-.072h.012l.216-.072.204-.06q-.036-.036-.036-.048-.012 0-.024-.012l-.18.096-.216.084-.18.084q-.048.024-.072-.024t.024-.072l.192-.084v-.012l.204-.072.192-.096h.012a.6.6 0 0 1-.048-.12l-.18.048-.204.06-.204.084q-.048.024-.072-.024t.036-.072l.204-.096h.012l.192-.048.204-.06v-.084l-.18.072v.012l-.216.048-.18.072q-.048.012-.072-.036-.012-.048.036-.072l.18-.06h.012l.204-.06.228-.108v-.072a.2.2 0 0 0-.012-.072l-.18.072-.18.084h-.012l-.204.06q-.048.024-.072-.036-.012-.048.036-.06l.204-.072.192-.072.168-.072h.012l.06-.024v-.084l-.192.084-.192.084h-.012l-.168.06q-.048.012-.072-.036-.012-.048.036-.072l.168-.048.204-.084.18-.084.06-.036v-.12l-.204.096-.192.084-.012.012-.18.048q-.048.012-.072-.036-.012-.048.036-.06l.18-.06.444-.204q0-.084-.024-.108h-.012l-.18.048-.18.096-.216.084q-.048.024-.072-.024t.036-.072l.204-.084.18-.096h.012l.192-.06.06-.024q0-.084-.048-.12l-.192.06-.192.084h-.012l-.204.06q-.06.012-.072-.036-.012-.06.036-.072l.204-.048.192-.096h.012l.204-.06.06-.012v-.096l-.216.084-.204.084-.216.072q-.048.024-.072-.024-.012-.048.036-.072l.204-.084.216-.072.252-.108a.1.1 0 0 1-.012-.048v-.048q0-.036-.024-.048l-.204.072-.204.048-.204.084q-.048.012-.072-.036-.012-.048.036-.072l.204-.072h.012l.192-.06.216-.072.036-.012v-.072l-.156.048-.192.084-.18.06q-.048.024-.072-.024-.012-.06.036-.072l.168-.072.204-.072v-.012l.192-.06a1 1 0 0 0-.012-.144l-.168.06-.18.072h-.012l-.204.06q-.06.012-.072-.036-.012-.06.036-.072l.216-.06.18-.06.204-.084v-.132l-.192.072-.18.084-.18.096q-.048.024-.072-.024t.024-.072l.18-.096.18-.084.012-.012.204-.06.036-.012v-.12l-.168.06-.168.084h-.012l-.168.06q-.048.012-.072-.036-.012-.06.036-.072l.168-.06.168-.072h.012l.168-.072h.012l.024-.012a.5.5 0 0 0 .012-.096l-.204.06-.168.048-.18.096q-.048.024-.072-.024t.024-.072l.18-.096h.012l.168-.06.24-.072a.3.3 0 0 0-.024-.144l-.204.096-.216.06-.204.072q-.048.024-.072-.024-.012-.048.036-.072l.204-.084h.012l.204-.048.204-.096h.012l.048-.012v-.096l-.18.06-.168.084-.192.096q-.048.024-.072-.024t.024-.072l.192-.096.168-.084h.012q-.012 0 0 0l.216-.072a.4.4 0 0 0-.012-.12h-.012l-.192.06-.192.084-.192.096q-.048.024-.072-.024t.024-.072l.192-.096.192-.084.012-.012.24-.072a1 1 0 0 0-.012-.144l-.18.06-.18.084h-.012l-.204.06q-.06.012-.072-.048-.012-.048.036-.06l.216-.06.18-.072.216-.072v-.108l-.156.072-.18.06-.216.096q-.048.024-.072-.024t.036-.072l.204-.096.192-.072.18-.072h.012v-.12l-.132.072-.168.084-.18.06q-.048.024-.072-.024-.012-.048.036-.072l.168-.072.168-.072.18-.096h.012v-.132l-.144.06v.012l-.204.048-.18.06q-.048.012-.072-.036-.012-.048.036-.072l.192-.048.192-.06.168-.072q.012-.012.024-.012v-.048a.2.2 0 0 0 .012-.06l-.204.072-.216.072-.204.072q-.048.024-.072-.024-.012-.06.036-.072l.216-.084.204-.06.252-.096v-.12l-.192.06-.18.096-.216.096q-.048.012-.072-.036t.036-.072l.204-.084.18-.096h.012l.24-.084q0-.084-.048-.108l-.216.084-.18.072-.204.096q-.048.024-.072-.024t.024-.072l.204-.096.192-.084.204-.072.108-.036q0-.084-.048-.096l-.192.06-.192.084-.204.084q-.048.024-.072-.024t.024-.072l.204-.084.204-.084.192-.072.084-.024q-.012-.096-.048-.12l-.216.096-.204.048-.18.084q-.048.024-.072-.024-.024-.06.036-.072l.18-.084h.012l.192-.06.204-.084h.012l.072-.036q0-.072-.024-.096l-.216.084-.192.096h-.012l-.168.048q-.048.024-.072-.024-.012-.06.036-.072l.168-.06.192-.084h.012l.204-.084.06-.024q0-.096-.036-.132l-.18.084-.192.096-.18.084q-.048.024-.072-.024-.024-.06.024-.072l.18-.084.192-.096.18-.084.012-.012.072-.012q0-.084-.048-.12l-.204.06-.192.06-.18.048q-.048.024-.072-.036-.012-.048.036-.06l.192-.06.18-.06.216-.048.06-.024a.2.2 0 0 0-.024-.108l-.192.072-.204.072-.192.06q-.06.012-.072-.036-.012-.06.036-.072l.204-.048.192-.072.192-.084h.012l.048-.012v-.12l-.192.072-.18.048-.18.084q-.048.024-.072-.024t.024-.072l.18-.084h.012l.18-.06.228-.072a1 1 0 0 1-.012-.12l-.18.072-.168.06-.192.084q-.048.024-.072-.024t.024-.072l.192-.084.012-.012.168-.048.168-.084a.2.2 0 0 0 .048-.012v-.084l-.204.084-.18.072-.216.096q-.048.024-.072-.024-.024-.06.036-.072l.204-.096.192-.084.24-.084v-.012a.13.13 0 0 1-.012-.06v-.072l-.18.084-.18.06-.192.084q-.048.024-.072-.024t.024-.072l.192-.084v-.012h.012l.18-.048.216-.096q0-.048.012-.096l-.096.036-.204.06-.192.06q-.048.024-.072-.036-.012-.048.036-.06l.18-.06q0-.036.036-.048l.204-.072.168-.048a.24.24 0 0 1 .072-.084.37.37 0 0 1 .24-.132 1.6 1.6 0 0 1 .276 0h.06q.06 0 .108.012h.12a14 14 0 0 0 1.68-.048q.252-.024.504-.012.264 0 .516.012.084 0 .168.012h1.02q.228 0 .444.036.324.06.648.168.336.096.624.252.168.096.324.216.168.108.3.252.204.204.36.624.168.408.252.852.096.432.072.72a4.5 4.5 0 0 1-.084.66q-.06.372-.204.732-.132.348-.336.552-.228.288-.564.528-.324.24-.66.396h-.012q-.3.108-.624.144a5 5 0 0 1-.612.036l-.132.036q-.048.024-.06-.024-.012-.012-.012-.024l-.18.06q-.048.012-.072-.036l-.168.06q-.048.024-.072-.024v-.024l-.18.048a.05.05 0 0 1-.048 0l-.18.084q-.048.024-.072-.024t.024-.072l.204-.096.096-.024a.13.13 0 0 0-.06-.012l-.084.012-.18.072-.06.024a.3.3 0 0 0-.012.084q0 .048-.012.084-.036.348-.048.684 0 .336-.036.672v.168q0 .084-.012.168a.6.6 0 0 1-.024.156 1 1 0 0 1-.06.18.5.5 0 0 1-.312.276.8.8 0 0 1-.24.036m-2.064-.192q.036-.024.06 0h.072a1 1 0 0 0 .108-.012q.024 0 .048.012.084 0 .18-.012h.012q.132-.012.264-.012l.264-.024q.18-.024.348-.036l.348-.024q.036 0 .072.012h.084q.12.012.24.012a.34.34 0 0 0 .216-.096.2.2 0 0 0 .048-.084 1 1 0 0 0 .036-.108 1 1 0 0 0 .012-.144 1 1 0 0 0 .012-.144v-.156q.036-.336.048-.672.012-.348.048-.684v-.072q0-.036.012-.072l-.024-.024q0-.024.012-.048v-.012a.05.05 0 0 1 0-.048q-.024 0-.036-.036-.012-.048.036-.06 0-.096.06-.156l.036-.012a.1.1 0 0 1 .036-.012h.216q.12 0 .228.012.084 0 .168.012.096.012.18.012.156.024.3.036.156.012.312.012h.048l.06-.024q.036-.012.06.012h.108l.06-.036q.048-.024.072.024h.012l.168-.072q.036-.012.06.012l.192-.06q.012-.012.036-.012a1 1 0 0 0 .096-.012l.096-.036q.012-.012.024-.012l.216-.072q.036-.024.048.012.252-.144.492-.324.24-.192.408-.408h.012q.18-.18.288-.504.12-.324.18-.672t.072-.588a2.7 2.7 0 0 0-.072-.648 4 4 0 0 0-.216-.78q-.144-.384-.324-.564a1.7 1.7 0 0 0-.264-.216 2 2 0 0 0-.288-.192 3 3 0 0 0-.576-.24 4 4 0 0 0-.588-.144 2.6 2.6 0 0 0-.432-.036h-.996a10 10 0 0 0-.672-.024 3.5 3.5 0 0 0-.504.012q-.408.036-.852.048-.432.012-.852 0h-.108a.6.6 0 0 0-.12-.012h-.072a1 1 0 0 0-.156-.012.16.16 0 0 0-.132.06.2.2 0 0 0-.072.132q0 .084.012.168 0 .048.012.072v.228q.012.36.012.72l.024.696a6 6 0 0 1 0 .744q-.012.24-.036.48a4 4 0 0 0-.024.456v.24q.012.12.012.24.012.096.012.204v.456q0 .12-.012.24 0 .108-.012.216v.528l.024.324v.156a8 8 0 0 1 .012 1.164 2 2 0 0 0-.012.24q0 .024-.012.072v.144q.012.036.024.084l.048.072.204.084zm2.688-4.716-.084.036a.08.08 0 0 1-.084-.024q-.048-.036-.048-.072l.024-.456q.012-.228.012-.444v-.108q-.048.012-.06-.036t.06-.072v-.024q-.06.012-.06-.036-.012-.06.036-.072a.4.4 0 0 1-.012-.084.3.3 0 0 1 .048-.096q.012 0 .036-.012a.1.1 0 0 1 .036-.012q.096-.012.192-.012h.3q.228-.012.432.024.216.024.348.228.18.252.144.624a.69.69 0 0 1-.312.54.5.5 0 0 1-.168.072 2 2 0 0 1-.18.036.4.4 0 0 1-.084.012.3.3 0 0 0-.084-.012zm.288-1.224-.18.072v.024q0-.012.012-.012l.204-.084.072-.024a.1.1 0 0 0-.036.012.3.3 0 0 0-.072.012m-.18.18v.084q0 .168-.012.336 0 .168-.012.336h.396a.4.4 0 0 0 .132 0h.048a.13.13 0 0 1 .06-.012l.072-.036v-.012l.096-.024a.43.43 0 0 0 .132-.228l-.156.072-.204.072-.18.048q-.048.024-.072-.036-.012-.048.036-.06l.192-.06.192-.06.18-.096q.012 0 .024-.012a.2.2 0 0 0-.012-.12l-.204.084h-.012l-.204.072-.168.072q-.048.024-.072-.024t.024-.072l.18-.072v-.012l.204-.06.216-.096.024-.012a.2.2 0 0 0-.072-.108l-.192.06-.18.06-.216.072q-.048.012-.06-.036-.024-.048.024-.072l.216-.06.18-.072h.012l.156-.048a.3.3 0 0 0-.144-.06l-.168.048-.204.072-.204.084a.1.1 0 0 1-.048-.012m7.141 6-.156.096h-.012l-.204.06q-.048.024-.072-.024l-.012-.048-.204.06q-.06.024-.072-.024-.012-.06.036-.072l.18-.06h-.012l-.12.036-.192.048q-.036.012-.06-.012l-.18.06q-.048.024-.072-.024 0-.024-.024-.024l-.168.084q-.048.024-.072-.024t.024-.072l.108-.06h-.036l-.084.036-.216.072a.05.05 0 0 1-.048 0l-.12.036q-.048.024-.072-.024v-.036l-.156.036q-.048.024-.06-.036l-.168.036q-.036.012-.06-.012l-.072.024-.132.06q-.048.024-.072-.024t.036-.072a.1.1 0 0 1 .036-.036l.132-.048v-.012l.216-.072.144-.144-.108.036-.192.084-.168.096h-.012l-.168.072q-.048.024-.072-.024t.024-.072l.18-.072.168-.096h.012l.192-.084.072-.024q0-.012-.012-.012l-.012-.024-.024-.048-.024-.048-.084.012-.18.084-.204.096-.18.06q-.048.024-.072-.024-.012-.048.036-.072l.168-.072.216-.084.18-.084h.012l.072-.024-.024-.06q0-.024-.012-.036l-.192.084-.204.072-.192.084q-.048.024-.072-.024-.024-.06.036-.072l.18-.084.216-.084.18-.072q.012 0 .048-.024v-.108l-.204.084-.18.06-.168.072q-.048.012-.072-.036-.012-.048.036-.072l.168-.06h.012l.168-.06.204-.096a.2.2 0 0 0 .048-.012v-.096l-.192.048-.168.084-.204.084q-.048.024-.072-.024t.024-.072l.204-.096.168-.072h.012v-.012l.228-.06a.2.2 0 0 0-.012-.072v-.072l-.204.096-.204.048-.18.084q-.048.024-.072-.024-.024-.06.036-.072l.18-.084h.012l.192-.06.192-.084a.4.4 0 0 0 .06-.012v-.096l-.168.048-.192.072-.192.096q-.048.024-.072-.024t.024-.072l.192-.096h.012l.192-.072.204-.06v-.12l-.204.096-.216.072-.204.048q-.06.024-.072-.036-.012-.048.036-.06l.216-.06.204-.06.24-.108v-.144l-.18.084-.204.06-.216.096q-.048.024-.072-.024t.036-.072l.204-.096h.012l.204-.072.168-.072a.2.2 0 0 0 .048-.012v-.084q0-.012-.012-.012l-.204.084-.204.084h-.012l-.204.06q-.06.012-.072-.036-.012-.06.036-.072l.216-.048.204-.084.24-.108v-.144l-.156.048-.204.096h-.012l-.18.048q-.048.024-.072-.036-.012-.048.036-.06l.18-.06.216-.084.192-.06q0-.036-.012-.048l-.096.024-.132.072-.18.096q-.048.024-.072-.024t.024-.072l.192-.096a.1.1 0 0 1 .036-.036l.12-.048.144-.072a.43.43 0 0 1 .132-.204l.048-.024q-.048 0-.06-.036-.024-.06.036-.072l.228-.084-.06-.024-.108.036-.072.036-.168.084-.192.084q-.048.024-.072-.024v-.036q-.048.024-.072-.024-.012-.06.036-.072l.216-.072.252-.084q-.012-.012-.024-.012a.3.3 0 0 1-.048-.06l-.18.072-.204.096-.192.084q-.048.024-.072-.024t.024-.072l.192-.084v-.012l.216-.084.18-.072-.06-.132-.18.084-.192.06-.18.084q-.048.024-.072-.024t.024-.072l.18-.084v-.012h.012l.192-.048.168-.084a.2.2 0 0 0 .048-.012v-.108l-.204.084-.18.072-.192.072q-.048.024-.072-.024t.036-.072l.18-.072v-.012l.192-.06.192-.096.072-.024v-.108l-.18.06-.18.06-.168.072q-.048.012-.072-.036-.012-.048.036-.072l.168-.06v-.012h.012l.168-.048.228-.096a.3.3 0 0 0-.012-.108l-.18.084-.168.084-.192.084q-.048.012-.072-.036t.036-.072l.18-.072.168-.084.18-.084v-.012l.072-.024q0-.096-.024-.132l-.18.084v.012l-.42.108q-.06.012-.072-.036-.012-.06.036-.072l.216-.048.204-.06.168-.084.012-.012.072-.012q0-.084-.024-.108l-.216.084-.204.06-.204.084q-.048.024-.072-.036-.012-.048.036-.06l.192-.084h.012l.204-.072.204-.072.072-.036q.012-.072-.036-.084l-.216.084-.168.072h-.012l-.192.072q-.048.012-.072-.036-.012-.048.036-.06l.192-.072.168-.084h.012l.204-.072.096-.048v-.144l-.072.012-.18.06-.204.072-.204.06q-.048.024-.072-.036-.012-.048.036-.06l.216-.072.192-.072.192-.048.096-.036a.5.5 0 0 0 .012-.108l-.084.036-.18.096-.192.072-.192.048q-.06.024-.072-.036-.012-.048.036-.06l.204-.06.18-.06.168-.096.132-.06v-.132l-.072.012-.204.084-.192.084-.18.06q-.048.024-.072-.024-.012-.048.036-.072l.168-.072.204-.072.204-.084h.012l.096-.036v-.12l-.072.024-.204.048-.204.096-.204.072q-.048.024-.072-.024-.012-.048.036-.072l.192-.084.216-.084.216-.06.096-.036v-.108l-.06.036h-.012l-.168.048-.204.096h-.012l-.192.06q-.06.012-.072-.036-.012-.06.036-.072l.192-.06.216-.084.168-.06.108-.048v-.12l-.072.024-.192.048-.18.06-.18.072q-.048.012-.072-.036-.012-.048.036-.072l.192-.072.168-.048.204-.06.096-.036q0-.072-.06-.072h-.012l-.192.072-.18.048-.204.072q-.048.012-.072-.036-.012-.048.036-.072l.216-.06.168-.06.192-.072.096-.036q0-.096-.036-.12l-.18.096-.204.084-.204.084q-.048.024-.072-.036-.012-.048.036-.072l.192-.072.204-.096.18-.084.072-.036q0-.084-.06-.108l-.18.072-.216.048-.18.06q-.048.012-.072-.036-.012-.048.036-.072l.192-.048.204-.06.192-.06.084-.036q0-.072-.06-.096l-.216.084-.204.084h-.012l-.204.072q-.048.012-.072-.036-.012-.048.036-.06l.204-.072.216-.096.204-.072.096-.036q0-.084-.024-.12l-.192.084-.192.084v.012h-.012l-.18.048q-.048.024-.072-.036-.012-.048.036-.06l.18-.06.204-.084.18-.084.072-.024v-.024a.3.3 0 0 0-.012-.096l-.18.072-.168.096-.192.072q-.048.024-.072-.024t.036-.072l.18-.084.168-.084H498l.228-.096v-.012l-.012-.084q0-.012-.036-.012h-.012v.012l-.204.048-.18.084h-.012l-.18.048q-.048.024-.072-.036-.012-.048.036-.06l.18-.06.192-.072v-.012l.216-.048.072-.036v-.06l-.132.048-.18.072-.18.06q-.048.024-.072-.024-.012-.06.036-.072l.156-.072q.012-.024.036-.024l.192-.06.18-.084a.5.5 0 0 1 .096-.144q.12-.12.252-.12a1.6 1.6 0 0 1 .276 0h.048l.432.024q.216.012.42.012h.3q.156 0 .3-.012h.144q.144 0 .276.012a.43.43 0 0 1 .252.12.38.38 0 0 1 .12.24q.024.132.012.276v.06q0 .18-.012.36v.78q.012.612.012 1.236.012.612.084 1.212v.012q.012.228.012.48 0 .024.012.084v.096a.4.4 0 0 1-.012.096.7.7 0 0 1-.048.168.45.45 0 0 1-.336.288 3 3 0 0 1-.264.012h-.264l-.156.084-.144.072h.492q.144 0 .276.024.144.024.264.132.108.12.12.264.024.132.024.276v.048a2 2 0 0 0-.012.192v.192l-.024.492q0 .24.012.492v.108q0 .06.012.12v.048q0 .156-.024.3a.4.4 0 0 1-.132.252.4.4 0 0 1-.156.084 1 1 0 0 1-.18.036.6.6 0 0 1-.168 0h-.144q0-.012-.012-.012m-1.884-3.552.24.072q.768.012 1.548-.012h.48a.23.23 0 0 0 .132-.06.2.2 0 0 0 .048-.084l.024-.096v-.132a.3.3 0 0 1-.012-.072q0-.252-.012-.48-.06-.6-.072-1.224l-.024-1.248v-.792q.012-.18.012-.36 0-.024.012-.072v-.144a.2.2 0 0 0-.06-.144.22.22 0 0 0-.144-.048.5.5 0 0 0-.156 0h-.156a4 4 0 0 1-.3.012h-.312q-.216 0-.444-.012l-.432-.024a.3.3 0 0 1-.072-.012 1 1 0 0 0-.144-.012.18.18 0 0 0-.132.06.18.18 0 0 0-.048.132v.168a.3.3 0 0 1 .012.072v.648l.024.408q.012.348.012.684.012.336 0 .672l-.024.624q0 .3-.012.6l-.024.24v.24a.3.3 0 0 0-.012.084.2.2 0 0 0-.012.072v.072l.024.096a.3.3 0 0 1 .036.072m.588.468h.06q.204.024.396.036h.396q-.012 0-.012-.012-.024-.048.036-.072l-.204.072q-.048.024-.072-.024t.036-.072l.084-.036a.1.1 0 0 0-.048.012l-.204.06q-.048.024-.06-.024l-.012-.012-.192.048q-.06.024-.072-.036zm-.552 2.616.168.192h.324q.168-.012.336-.012.216-.012.42-.012h.432q.048 0 .084.012.048 0 .084.012.072 0 .144.012a1 1 0 0 0 .144-.012.4.4 0 0 0 .084-.012.3.3 0 0 0 .096-.036q.06-.06.06-.144v-.228a.6.6 0 0 1-.012-.12v-.12a10 10 0 0 1-.012-.492l.024-.504v-.192q0-.096.012-.192v-.06q0-.084-.012-.168a.22.22 0 0 0-.048-.144.2.2 0 0 0-.144-.06 1 1 0 0 0-.168-.012h-.96a10 10 0 0 1-.468-.036h-.084a.2.2 0 0 0-.072-.012l-.144-.024a.5.5 0 0 0-.156 0 .4.4 0 0 0-.084.012.12.12 0 0 0-.084.036.16.16 0 0 0-.06.132v.216q0 .096.012.216v1.2a.2.2 0 0 1-.012.072v.144q0 .072.012.144.012.048.036.096z"/><path fill="#fff" fill-rule="evenodd" d="M99.686 81.794c55.055 0 99.686 44.63 99.686 99.685s-44.631 99.686-99.686 99.686a99.6 99.6 0 0 1-30.993-4.913c.417 10.465.685 22.036.685 35.221 0 19.159-15.53 34.69-34.689 34.69S0 330.632 0 311.473V173.236c0-27.781 16.595-54.751 40.806-72.204a99.7 99.7 0 0 1 16.17-9.65q1.263-.612 2.543-1.19.316-.142.619-.244c12.125-5.246 25.496-8.154 39.548-8.154m0 68.648c-17.949 0-32.499 14.55-32.499 32.498s14.55 32.498 32.499 32.498c17.948 0 32.498-14.55 32.498-32.498s-14.55-32.498-32.498-32.498m509.017-68.648c55.055 0 99.686 44.63 99.686 99.685s-44.631 99.686-99.686 99.686a99.6 99.6 0 0 1-30.992-4.913c.417 10.465.685 22.036.685 35.221 0 19.159-15.531 34.69-34.689 34.69s-34.689-15.531-34.689-34.69V173.236c0-27.781 16.594-54.751 40.806-72.204a99.7 99.7 0 0 1 16.169-9.65q1.264-.612 2.544-1.19.316-.142.618-.244c12.125-5.246 25.497-8.154 39.548-8.154m0 68.648c-17.948 0-32.498 14.55-32.498 32.498s14.55 32.498 32.498 32.498c17.949 0 32.499-14.55 32.499-32.498s-14.55-32.498-32.499-32.498M398.377 83.254c55.055 0 99.686 44.631 99.686 99.686s-44.631 99.686-99.686 99.686-99.686-44.631-99.686-99.686 44.631-99.686 99.686-99.686m0 68.648c-17.948 0-32.498 14.55-32.498 32.499 0 17.948 14.55 32.498 32.498 32.498 17.949 0 32.499-14.55 32.499-32.498 0-17.949-14.55-32.499-32.499-32.499" clip-rule="evenodd"/><circle cx="760.971" cy="255.605" r="41.627" fill="#cafd2b"/><path fill="#cafd2b" d="M743.809 171.621s-.73 21.419 24.83 29.211c30.307 5.477 39.071-14.241 41.262-19.718s27.751-100.781 36.15-141.313c4.312-20.813-17.574-35.131-37.976-36.515-21.544-1.46-39.071 4.017-43.453 20.084-4.381 16.066-20.813 148.251-20.813 148.251M157.675 365.55q-4.35 0-7.5-1.4-3.1-1.45-5.7-4.35l5.1-5.05q1.7 1.95 3.75 3.05 2.1 1.05 4.85 1.05 2.5 0 3.85-.9 1.4-.9 1.4-2.5 0-1.45-.9-2.35t-2.4-1.55q-1.45-.65-3.25-1.25-1.75-.6-3.5-1.35a16.8 16.8 0 0 1-3.25-1.95 9.3 9.3 0 0 1-2.35-2.95q-.9-1.8-.9-4.5 0-3.25 1.55-5.6 1.6-2.35 4.4-3.55 2.799-1.25 6.45-1.25 3.699 0 6.75 1.3 3.099 1.3 5.1 3.55l-5.1 5.05q-1.6-1.65-3.25-2.45-1.6-.8-3.65-.8t-3.25.8q-1.2.75-1.2 2.2 0 1.35.9 2.2.9.8 2.35 1.4 1.5.6 3.25 1.2 1.8.6 3.55 1.4a13.4 13.4 0 0 1 3.2 2.05q1.5 1.2 2.4 3.1.9 1.85.9 4.6 0 5.05-3.6 7.95-3.6 2.85-9.95 2.85m58.55-.55v-35.3h7.85V365zm63.298 0v-34.8h7.85V365zm-11.05-28.45v-6.85h29.95v6.85zM342.807 365v-35.3h7.85V365zm6 0v-6.8h19.35v6.8zm0-14.75v-6.55h17.6v6.55zm0-13.8v-6.75h19.1v6.75zm74.483 29.1q-4.35 0-7.5-1.4-3.1-1.45-5.7-4.35l5.1-5.05q1.7 1.95 3.75 3.05 2.1 1.05 4.85 1.05 2.5 0 3.85-.9 1.4-.9 1.4-2.5 0-1.45-.9-2.35t-2.4-1.55q-1.45-.65-3.25-1.25-1.75-.6-3.5-1.35a16.8 16.8 0 0 1-3.25-1.95 9.3 9.3 0 0 1-2.35-2.95q-.9-1.8-.9-4.5 0-3.25 1.55-5.6 1.6-2.35 4.4-3.55 2.8-1.25 6.45-1.25 3.699 0 6.75 1.3 3.1 1.3 5.1 3.55l-5.1 5.05q-1.6-1.65-3.25-2.45-1.6-.8-3.65-.8t-3.25.8q-1.2.75-1.2 2.2 0 1.35.9 2.2.9.8 2.35 1.4 1.5.6 3.25 1.2 1.8.6 3.55 1.4a13.4 13.4 0 0 1 3.2 2.05q1.5 1.2 2.4 3.1.9 1.85.9 4.6 0 5.05-3.6 7.95-3.6 2.85-9.95 2.85"/></svg>